<svg width="512" height="512" xmlns="http://www.w3.org/2000/svg" xml:space="preserve" version="1.1">

 <g>
  <title>Layer 1</title>
  <g id="svg_146"/>
  <g id="svg_147">
   <rect fill="#000000" height="31.99006" width="31.92756" shape-rendering="crispEdges" y="0" x="64.85396" id="_x33_-1"/>
   <rect fill="#000000" height="31.99006" width="31.92756" shape-rendering="crispEdges" y="0" x="96.78152" id="_x34_-1"/>
   <rect fill="#000000" height="31.99006" width="31.92756" shape-rendering="crispEdges" y="0" x="384.12491" id="_x31_3-1"/>
   <rect fill="#000000" height="31.99006" width="31.92756" shape-rendering="crispEdges" y="0" x="416.05247" id="_x31_4-1"/>
   <rect fill="#000000" height="31.99006" width="31.92756" shape-rendering="crispEdges" y="31.99006" x="32.92756" id="_x32_-2"/>
   <rect fill="#000000" height="31.99006" width="31.92756" shape-rendering="crispEdges" y="31.99006" x="64.85396" id="_x33_-2"/>
   <rect fill="#000000" height="31.99006" width="31.92756" shape-rendering="crispEdges" y="31.99006" x="96.78152" id="_x34_-2"/>
   <rect fill="#000000" height="31.99006" width="31.92756" shape-rendering="crispEdges" y="31.99006" x="128.70908" id="_x35_-2"/>
   <rect fill="#000000" height="31.99006" width="31.92756" shape-rendering="crispEdges" y="31.99006" x="160.63548" id="_x36_-2"/>
   <rect fill="#000000" height="31.99006" width="31.92756" shape-rendering="crispEdges" y="31.99006" x="320.27095" id="_x31_1-2"/>
   <rect fill="#000000" height="31.99006" width="31.92756" shape-rendering="crispEdges" y="31.99006" x="352.19851" id="_x31_2-2"/>
   <rect fill="#000000" height="31.99006" width="31.92756" shape-rendering="crispEdges" y="31.99006" x="384.12491" id="_x31_3-2"/>
   <rect fill="#000000" height="31.99006" width="31.92756" shape-rendering="crispEdges" y="31.99006" x="416.05247" id="_x31_4-2"/>
   <rect fill="#000000" height="31.99006" width="31.92756" shape-rendering="crispEdges" y="31.99006" x="447.98003" id="_x31_5-2"/>
   <rect fill="#000000" height="31.99006" width="31.92756" shape-rendering="crispEdges" y="63.97896" x="1" id="_x31_-3"/>
   <rect fill="#000000" height="31.99006" width="31.92756" shape-rendering="crispEdges" y="63.97896" x="32.92756" id="_x32_-3"/>
   <rect fill="#000000" height="31.99006" width="31.92756" shape-rendering="crispEdges" y="63.97896" x="64.85396" id="_x33_-3"/>
   <rect fill="#000000" height="31.99006" width="31.92756" shape-rendering="crispEdges" y="63.97896" x="96.78152" id="_x34_-3"/>
   <rect fill="#000000" height="31.99006" width="31.92756" shape-rendering="crispEdges" y="63.97896" x="128.70908" id="_x35_-3"/>
   <rect fill="#000000" height="31.99006" width="31.92756" shape-rendering="crispEdges" y="63.97896" x="160.63548" id="_x36_-3"/>
   <rect fill="#000000" height="31.99006" width="31.92756" shape-rendering="crispEdges" y="63.97896" x="192.56304" id="_x37_-3"/>
   <rect fill="#000000" height="31.99006" width="31.92756" shape-rendering="crispEdges" y="63.97896" x="288.34456" id="_x31_0-3"/>
   <rect fill="#000000" height="31.99006" width="31.92756" shape-rendering="crispEdges" y="63.97896" x="320.27095" id="_x31_1-3"/>
   <rect fill="#000000" height="31.99006" width="31.92756" shape-rendering="crispEdges" y="63.97896" x="352.19851" id="_x31_2-3"/>
   <rect fill="#000000" height="31.99006" width="31.92756" shape-rendering="crispEdges" y="63.97896" x="384.12491" id="_x31_3-3"/>
   <rect fill="#000000" height="31.99006" width="31.92756" shape-rendering="crispEdges" y="63.97896" x="416.05247" id="_x31_4-3"/>
   <rect fill="#000000" height="31.99006" width="31.92756" shape-rendering="crispEdges" y="63.97896" x="447.98003" id="_x31_5-3"/>
   <rect fill="#000000" height="31.99006" width="31.92756" shape-rendering="crispEdges" y="63.97896" x="479.90643" id="_x31_6-3"/>
   <rect fill="#000000" height="31.99006" width="31.92756" shape-rendering="crispEdges" y="95.96903" x="1" id="_x31_-4"/>
   <rect fill="#000000" height="31.99006" width="31.92756" shape-rendering="crispEdges" y="95.96903" x="32.92756" id="_x32_-4"/>
   <rect fill="#000000" height="31.99006" width="31.92756" shape-rendering="crispEdges" y="95.96903" x="64.85396" id="_x33_-4"/>
   <rect fill="#000000" height="31.99006" width="31.92756" shape-rendering="crispEdges" y="95.96903" x="96.78152" id="_x34_-4"/>
   <rect fill="#000000" height="31.99006" width="31.92756" shape-rendering="crispEdges" y="95.96903" x="128.70908" id="_x35_-4"/>
   <rect fill="#000000" height="31.99006" width="31.92756" shape-rendering="crispEdges" y="95.96903" x="160.63548" id="_x36_-4"/>
   <rect fill="#000000" height="31.99006" width="31.92756" shape-rendering="crispEdges" y="95.96903" x="192.56304" id="_x37_-4"/>
   <rect fill="#000000" height="31.99006" width="31.92756" shape-rendering="crispEdges" y="95.96903" x="288.34456" id="_x31_0-4"/>
   <rect fill="#000000" height="31.99006" width="31.92756" shape-rendering="crispEdges" y="95.96903" x="320.27095" id="_x31_1-4"/>
   <rect fill="#000000" height="31.99006" width="31.92756" shape-rendering="crispEdges" y="95.96903" x="352.19851" id="_x31_2-4"/>
   <rect fill="#000000" height="31.99006" width="31.92756" shape-rendering="crispEdges" y="95.96903" x="384.12491" id="_x31_3-4"/>
   <rect fill="#000000" height="31.99006" width="31.92756" shape-rendering="crispEdges" y="95.96903" x="416.05247" id="_x31_4-4"/>
   <rect fill="#000000" height="31.99006" width="31.92756" shape-rendering="crispEdges" y="95.96903" x="447.98003" id="_x31_5-4"/>
   <rect fill="#000000" height="31.99006" width="31.92756" shape-rendering="crispEdges" y="95.96903" x="479.90643" id="_x31_6-4"/>
   <rect fill="#000000" height="31.99006" width="31.92756" shape-rendering="crispEdges" y="127.95909" x="1" id="_x31_-5"/>
   <rect fill="#000000" height="31.99006" width="31.92756" shape-rendering="crispEdges" y="127.95909" x="32.92756" id="_x32_-5"/>
   <rect fill="#000000" height="31.99006" width="31.92756" shape-rendering="crispEdges" y="127.95909" x="64.85396" id="_x33_-5"/>
   <rect fill="#000000" height="31.99006" width="31.92756" shape-rendering="crispEdges" y="127.95909" x="96.78152" id="_x34_-5"/>
   <rect fill="#000000" height="31.99006" width="31.92756" shape-rendering="crispEdges" y="127.95909" x="128.70908" id="_x35_-5"/>
   <rect fill="#000000" height="31.99006" width="31.92756" shape-rendering="crispEdges" y="127.95909" x="160.63548" id="_x36_-5"/>
   <rect fill="#000000" height="31.99006" width="31.92756" shape-rendering="crispEdges" y="127.95909" x="192.56304" id="_x37_-5"/>
   <rect fill="#000000" height="31.99006" width="31.92756" shape-rendering="crispEdges" y="127.95909" x="224.48944" id="_x38_-5"/>
   <rect fill="#000000" height="31.99006" width="31.92756" shape-rendering="crispEdges" y="127.95909" x="256.417" id="_x39_-5"/>
   <rect fill="#000000" height="31.99006" width="31.92756" shape-rendering="crispEdges" y="127.95909" x="288.34456" id="_x31_0-5"/>
   <rect fill="#000000" height="31.99006" width="31.92756" shape-rendering="crispEdges" y="127.95909" x="320.27095" id="_x31_1-5"/>
   <rect fill="#000000" height="31.99006" width="31.92756" shape-rendering="crispEdges" y="127.95909" x="352.19851" id="_x31_2-5"/>
   <rect fill="#000000" height="31.99006" width="31.92756" shape-rendering="crispEdges" y="127.95909" x="384.12491" id="_x31_3-5"/>
   <rect fill="#000000" height="31.99006" width="31.92756" shape-rendering="crispEdges" y="127.95909" x="416.05247" id="_x31_4-5"/>
   <rect fill="#000000" height="31.99006" width="31.92756" shape-rendering="crispEdges" y="127.95909" x="447.98003" id="_x31_5-5"/>
   <rect fill="#000000" height="31.99006" width="31.92756" shape-rendering="crispEdges" y="127.95909" x="479.90643" id="_x31_6-5"/>
   <rect fill="#000000" height="31.99006" width="31.92756" shape-rendering="crispEdges" y="159.94799" x="1" id="_x31_-6"/>
   <rect fill="#000000" height="31.99006" width="31.92756" shape-rendering="crispEdges" y="159.94799" x="32.92756" id="_x32_-6"/>
   <rect fill="#000000" height="31.99006" width="31.92756" shape-rendering="crispEdges" y="159.94799" x="64.85396" id="_x33_-6"/>
   <rect fill="#000000" height="31.99006" width="31.92756" shape-rendering="crispEdges" y="159.94799" x="96.78152" id="_x34_-6"/>
   <rect fill="#000000" height="31.99006" width="31.92756" shape-rendering="crispEdges" y="159.94799" x="128.70908" id="_x35_-6"/>
   <rect fill="#000000" height="31.99006" width="31.92756" shape-rendering="crispEdges" y="159.94799" x="160.63548" id="_x36_-6"/>
   <rect fill="#000000" height="31.99006" width="31.92756" shape-rendering="crispEdges" y="159.94799" x="192.56304" id="_x37_-6"/>
   <rect fill="#000000" height="31.99006" width="31.92756" shape-rendering="crispEdges" y="159.94799" x="224.48944" id="_x38_-6"/>
   <rect fill="#000000" height="31.99006" width="31.92756" shape-rendering="crispEdges" y="159.94799" x="256.417" id="_x39_-6"/>
   <rect fill="#000000" height="31.99006" width="31.92756" shape-rendering="crispEdges" y="159.94799" x="288.34456" id="_x31_0-6"/>
   <rect fill="#000000" height="31.99006" width="31.92756" shape-rendering="crispEdges" y="159.94799" x="320.27095" id="_x31_1-6"/>
   <rect fill="#000000" height="31.99006" width="31.92756" shape-rendering="crispEdges" y="159.94799" x="352.19851" id="_x31_2-6"/>
   <rect fill="#000000" height="31.99006" width="31.92756" shape-rendering="crispEdges" y="159.94799" x="384.12491" id="_x31_3-6"/>
   <rect fill="#000000" height="31.99006" width="31.92756" shape-rendering="crispEdges" y="159.94799" x="416.05247" id="_x31_4-6"/>
   <rect fill="#000000" height="31.99006" width="31.92756" shape-rendering="crispEdges" y="159.94799" x="447.98003" id="_x31_5-6"/>
   <rect fill="#000000" height="31.99006" width="31.92756" shape-rendering="crispEdges" y="159.94799" x="479.90643" id="_x31_6-6"/>
   <rect fill="#000000" height="31.99006" width="31.92756" shape-rendering="crispEdges" y="191.93805" x="1" id="_x31_-7"/>
   <rect fill="#000000" height="31.99006" width="31.92756" shape-rendering="crispEdges" y="191.93805" x="32.92756" id="_x32_-7"/>
   <rect fill="#000000" height="31.99006" width="31.92756" shape-rendering="crispEdges" y="191.93805" x="64.85396" id="_x33_-7"/>
   <rect fill="#000000" height="31.99006" width="31.92756" shape-rendering="crispEdges" y="191.93805" x="96.78152" id="_x34_-7"/>
   <rect fill="#000000" height="31.99006" width="31.92756" shape-rendering="crispEdges" y="191.93805" x="128.70908" id="_x35_-7"/>
   <rect fill="#000000" height="31.99006" width="31.92756" shape-rendering="crispEdges" y="191.93805" x="160.63548" id="_x36_-7"/>
   <rect fill="#000000" height="31.99006" width="31.92756" shape-rendering="crispEdges" y="191.93805" x="192.56304" id="_x37_-7"/>
   <rect fill="#000000" height="31.99006" width="31.92756" shape-rendering="crispEdges" y="191.93805" x="224.48944" id="_x38_-7"/>
   <rect fill="#000000" height="31.99006" width="31.92756" shape-rendering="crispEdges" y="191.93805" x="256.417" id="_x39_-7"/>
   <rect fill="#000000" height="31.99006" width="31.92756" shape-rendering="crispEdges" y="191.93805" x="288.34456" id="_x31_0-7"/>
   <rect fill="#000000" height="31.99006" width="31.92756" shape-rendering="crispEdges" y="191.93805" x="320.27095" id="_x31_1-7"/>
   <rect fill="#000000" height="31.99006" width="31.92756" shape-rendering="crispEdges" y="191.93805" x="352.19851" id="_x31_2-7"/>
   <rect fill="#000000" height="31.99006" width="31.92756" shape-rendering="crispEdges" y="191.93805" x="384.12491" id="_x31_3-7"/>
   <rect fill="#000000" height="31.99006" width="31.92756" shape-rendering="crispEdges" y="191.93805" x="416.05247" id="_x31_4-7"/>
   <rect fill="#000000" height="31.99006" width="31.92756" shape-rendering="crispEdges" y="191.93805" x="447.98003" id="_x31_5-7"/>
   <rect fill="#000000" height="31.99006" width="31.92756" shape-rendering="crispEdges" y="191.93805" x="479.90643" id="_x31_6-7"/>
   <rect fill="#000000" height="31.99006" width="31.92756" shape-rendering="crispEdges" y="223.92695" x="1" id="_x31_-8"/>
   <rect fill="#000000" height="31.99006" width="31.92756" shape-rendering="crispEdges" y="223.92695" x="32.92756" id="_x32_-8"/>
   <rect fill="#000000" height="31.99006" width="31.92756" shape-rendering="crispEdges" y="223.92695" x="64.85396" id="_x33_-8"/>
   <rect fill="#000000" height="31.99006" width="31.92756" shape-rendering="crispEdges" y="223.92695" x="96.78152" id="_x34_-8"/>
   <rect fill="#000000" height="31.99006" width="31.92756" shape-rendering="crispEdges" y="223.92695" x="128.70908" id="_x35_-8"/>
   <rect fill="#000000" height="31.99006" width="31.92756" shape-rendering="crispEdges" y="223.92695" x="160.63548" id="_x36_-8"/>
   <rect fill="#000000" height="31.99006" width="31.92756" shape-rendering="crispEdges" y="223.92695" x="192.56304" id="_x37_-8"/>
   <rect fill="#000000" height="31.99006" width="31.92756" shape-rendering="crispEdges" y="223.92695" x="224.48944" id="_x38_-8"/>
   <rect fill="#000000" height="31.99006" width="31.92756" shape-rendering="crispEdges" y="223.92695" x="256.417" id="_x39_-8"/>
   <rect fill="#000000" height="31.99006" width="31.92756" shape-rendering="crispEdges" y="223.92695" x="288.34456" id="_x31_0-8"/>
   <rect fill="#000000" height="31.99006" width="31.92756" shape-rendering="crispEdges" y="223.92695" x="320.27095" id="_x31_1-8"/>
   <rect fill="#000000" height="31.99006" width="31.92756" shape-rendering="crispEdges" y="223.92695" x="352.19851" id="_x31_2-8"/>
   <rect fill="#000000" height="31.99006" width="31.92756" shape-rendering="crispEdges" y="223.92695" x="384.12491" id="_x31_3-8"/>
   <rect fill="#000000" height="31.99006" width="31.92756" shape-rendering="crispEdges" y="223.92695" x="416.05247" id="_x31_4-8"/>
   <rect fill="#000000" height="31.99006" width="31.92756" shape-rendering="crispEdges" y="223.92695" x="447.98003" id="_x31_5-8"/>
   <rect fill="#000000" height="31.99006" width="31.92756" shape-rendering="crispEdges" y="223.92695" x="479.90643" id="_x31_6-8"/>
   <rect fill="#000000" height="31.99006" width="31.92756" shape-rendering="crispEdges" y="255.91701" x="1" id="_x31_-9"/>
   <rect fill="#000000" height="31.99006" width="31.92756" shape-rendering="crispEdges" y="255.91701" x="32.92756" id="_x32_-9"/>
   <rect fill="#000000" height="31.99006" width="31.92756" shape-rendering="crispEdges" y="255.91701" x="64.85396" id="_x33_-9"/>
   <rect fill="#000000" height="31.99006" width="31.92756" shape-rendering="crispEdges" y="255.91701" x="96.78152" id="_x34_-9"/>
   <rect fill="#000000" height="31.99006" width="31.92756" shape-rendering="crispEdges" y="255.91701" x="128.70908" id="_x35_-9"/>
   <rect fill="#000000" height="31.99006" width="31.92756" shape-rendering="crispEdges" y="255.91701" x="160.63548" id="_x36_-9"/>
   <rect fill="#000000" height="31.99006" width="31.92756" shape-rendering="crispEdges" y="255.91701" x="192.56304" id="_x37_-9"/>
   <rect fill="#000000" height="31.99006" width="31.92756" shape-rendering="crispEdges" y="255.91701" x="224.48944" id="_x38_-9"/>
   <rect fill="#000000" height="31.99006" width="31.92756" shape-rendering="crispEdges" y="255.91701" x="256.417" id="_x39_-9"/>
   <rect fill="#000000" height="31.99006" width="31.92756" shape-rendering="crispEdges" y="255.91701" x="288.34456" id="_x31_0-9"/>
   <rect fill="#000000" height="31.99006" width="31.92756" shape-rendering="crispEdges" y="255.91701" x="320.27095" id="_x31_1-9"/>
   <rect fill="#000000" height="31.99006" width="31.92756" shape-rendering="crispEdges" y="255.91701" x="352.19851" id="_x31_2-9"/>
   <rect fill="#000000" height="31.99006" width="31.92756" shape-rendering="crispEdges" y="255.91701" x="384.12491" id="_x31_3-9"/>
   <rect fill="#000000" height="31.99006" width="31.92756" shape-rendering="crispEdges" y="255.91701" x="416.05247" id="_x31_4-9"/>
   <rect fill="#000000" height="31.99006" width="31.92756" shape-rendering="crispEdges" y="255.91701" x="447.98003" id="_x31_5-9"/>
   <rect fill="#000000" height="31.99006" width="31.92756" shape-rendering="crispEdges" y="255.91701" x="479.90643" id="_x31_6-9"/>
   <rect fill="#000000" height="31.99006" width="31.92756" shape-rendering="crispEdges" y="287.90708" x="1" id="_x31_-10"/>
   <rect fill="#000000" height="31.99006" width="31.92756" shape-rendering="crispEdges" y="287.90708" x="32.92756" id="_x32_-10"/>
   <rect fill="#000000" height="31.99006" width="31.92756" shape-rendering="crispEdges" y="287.90708" x="64.85396" id="_x33_-10"/>
   <rect fill="#000000" height="31.99006" width="31.92756" shape-rendering="crispEdges" y="287.90708" x="96.78152" id="_x34_-10"/>
   <rect fill="#000000" height="31.99006" width="31.92756" shape-rendering="crispEdges" y="287.90708" x="128.70908" id="_x35_-10"/>
   <rect fill="#000000" height="31.99006" width="31.92756" shape-rendering="crispEdges" y="287.90708" x="160.63548" id="_x36_-10"/>
   <rect fill="#000000" height="31.99006" width="31.92756" shape-rendering="crispEdges" y="287.90708" x="192.56304" id="_x37_-10"/>
   <rect fill="#000000" height="31.99006" width="31.92756" shape-rendering="crispEdges" y="287.90708" x="224.48944" id="_x38_-10"/>
   <rect fill="#000000" height="31.99006" width="31.92756" shape-rendering="crispEdges" y="287.90708" x="256.417" id="_x39_-10"/>
   <rect fill="#000000" height="31.99006" width="31.92756" shape-rendering="crispEdges" y="287.90708" x="288.34456" id="_x31_0-10"/>
   <rect fill="#000000" height="31.99006" width="31.92756" shape-rendering="crispEdges" y="287.90708" x="320.27095" id="_x31_1-10"/>
   <rect fill="#000000" height="31.99006" width="31.92756" shape-rendering="crispEdges" y="287.90708" x="352.19851" id="_x31_2-10"/>
   <rect fill="#000000" height="31.99006" width="31.92756" shape-rendering="crispEdges" y="287.90708" x="384.12491" id="_x31_3-10"/>
   <rect fill="#000000" height="31.99006" width="31.92756" shape-rendering="crispEdges" y="287.90708" x="416.05247" id="_x31_4-10"/>
   <rect fill="#000000" height="31.99006" width="31.92756" shape-rendering="crispEdges" y="287.90708" x="447.98003" id="_x31_5-10"/>
   <rect fill="#000000" height="31.99006" width="31.92756" shape-rendering="crispEdges" y="287.90708" x="479.90643" id="_x31_6-10"/>
   <rect fill="#000000" height="31.99006" width="31.92756" shape-rendering="crispEdges" y="319.89597" x="64.85396" id="_x33_-11"/>
   <rect fill="#000000" height="31.99006" width="31.92756" shape-rendering="crispEdges" y="319.89597" x="96.78152" id="_x34_-11"/>
   <rect fill="#000000" height="31.99006" width="31.92756" shape-rendering="crispEdges" y="319.89597" x="128.70908" id="_x35_-11"/>
   <rect fill="#000000" height="31.99006" width="31.92756" shape-rendering="crispEdges" y="319.89597" x="160.63548" id="_x36_-11"/>
   <rect fill="#000000" height="31.99006" width="31.92756" shape-rendering="crispEdges" y="319.89597" x="192.56304" id="_x37_-11"/>
   <rect fill="#000000" height="31.99006" width="31.92756" shape-rendering="crispEdges" y="319.89597" x="224.48944" id="_x38_-11"/>
   <rect fill="#000000" height="31.99006" width="31.92756" shape-rendering="crispEdges" y="319.89597" x="256.417" id="_x39_-11"/>
   <rect fill="#000000" height="31.99006" width="31.92756" shape-rendering="crispEdges" y="319.89597" x="288.34456" id="_x31_0-11"/>
   <rect fill="#000000" height="31.99006" width="31.92756" shape-rendering="crispEdges" y="319.89597" x="320.27095" id="_x31_1-11"/>
   <rect fill="#000000" height="31.99006" width="31.92756" shape-rendering="crispEdges" y="319.89597" x="352.19851" id="_x31_2-11"/>
   <rect fill="#000000" height="31.99006" width="31.92756" shape-rendering="crispEdges" y="319.89597" x="384.12491" id="_x31_3-11"/>
   <rect fill="#000000" height="31.99006" width="31.92756" shape-rendering="crispEdges" y="319.89597" x="416.05247" id="_x31_4-11"/>
   <rect fill="#000000" height="31.99006" width="31.92756" shape-rendering="crispEdges" y="351.88604" x="64.85396" id="_x33_-12"/>
   <rect fill="#000000" height="31.99006" width="31.92756" shape-rendering="crispEdges" y="351.88604" x="96.78152" id="_x34_-12"/>
   <rect fill="#000000" height="31.99006" width="31.92756" shape-rendering="crispEdges" y="351.88604" x="128.70908" id="_x35_-12"/>
   <rect fill="#000000" height="31.99006" width="31.92756" shape-rendering="crispEdges" y="351.88604" x="160.63548" id="_x36_-12"/>
   <rect fill="#000000" height="31.99006" width="31.92756" shape-rendering="crispEdges" y="351.88604" x="192.56304" id="_x37_-12"/>
   <rect fill="#000000" height="31.99006" width="31.92756" shape-rendering="crispEdges" y="351.88604" x="224.48944" id="_x38_-12"/>
   <rect fill="#000000" height="31.99006" width="31.92756" shape-rendering="crispEdges" y="351.88604" x="256.417" id="_x39_-12"/>
   <rect fill="#000000" height="31.99006" width="31.92756" shape-rendering="crispEdges" y="351.88604" x="288.34456" id="_x31_0-12"/>
   <rect fill="#000000" height="31.99006" width="31.92756" shape-rendering="crispEdges" y="351.88604" x="320.27095" id="_x31_1-12"/>
   <rect fill="#000000" height="31.99006" width="31.92756" shape-rendering="crispEdges" y="351.88604" x="352.19851" id="_x31_2-12"/>
   <rect fill="#000000" height="31.99006" width="31.92756" shape-rendering="crispEdges" y="351.88604" x="384.12491" id="_x31_3-12"/>
   <rect fill="#000000" height="31.99006" width="31.92756" shape-rendering="crispEdges" y="351.88604" x="416.05247" id="_x31_4-12"/>
   <rect fill="#000000" height="31.99006" width="31.92756" shape-rendering="crispEdges" y="383.87494" x="128.70908" id="_x35_-13"/>
   <rect fill="#000000" height="31.99006" width="31.92756" shape-rendering="crispEdges" y="383.87494" x="160.63548" id="_x36_-13"/>
   <rect fill="#000000" height="31.99006" width="31.92756" shape-rendering="crispEdges" y="383.87494" x="192.56304" id="_x37_-13"/>
   <rect fill="#000000" height="31.99006" width="31.92756" shape-rendering="crispEdges" y="383.87494" x="224.48944" id="_x38_-13"/>
   <rect fill="#000000" height="31.99006" width="31.92756" shape-rendering="crispEdges" y="383.87494" x="256.417" id="_x39_-13"/>
   <rect fill="#000000" height="31.99006" width="31.92756" shape-rendering="crispEdges" y="383.87494" x="288.34456" id="_x31_0-13"/>
   <rect fill="#000000" height="31.99006" width="31.92756" shape-rendering="crispEdges" y="383.87494" x="320.27095" id="_x31_1-13"/>
   <rect fill="#000000" height="31.99006" width="31.92756" shape-rendering="crispEdges" y="383.87494" x="352.19851" id="_x31_2-13"/>
   <rect fill="#000000" height="31.99006" width="31.92756" shape-rendering="crispEdges" y="415.865" x="128.70908" id="_x35_-14"/>
   <rect fill="#000000" height="31.99006" width="31.92756" shape-rendering="crispEdges" y="415.865" x="160.63548" id="_x36_-14"/>
   <rect fill="#000000" height="31.99006" width="31.92756" shape-rendering="crispEdges" y="415.865" x="192.56304" id="_x37_-14"/>
   <rect fill="#000000" height="31.99006" width="31.92756" shape-rendering="crispEdges" y="415.865" x="224.48944" id="_x38_-14"/>
   <rect fill="#000000" height="31.99006" width="31.92756" shape-rendering="crispEdges" y="415.865" x="256.417" id="_x39_-14"/>
   <rect fill="#000000" height="31.99006" width="31.92756" shape-rendering="crispEdges" y="415.865" x="288.34456" id="_x31_0-14"/>
   <rect fill="#000000" height="31.99006" width="31.92756" shape-rendering="crispEdges" y="415.865" x="320.27095" id="_x31_1-14"/>
   <rect fill="#000000" height="31.99006" width="31.92756" shape-rendering="crispEdges" y="415.865" x="352.19851" id="_x31_2-14"/>
   <rect fill="#000000" height="31.99006" width="31.92756" shape-rendering="crispEdges" y="447.85506" x="192.56304" id="_x37_-15"/>
   <rect fill="#000000" height="31.99006" width="31.92756" shape-rendering="crispEdges" y="447.85506" x="224.48944" id="_x38_-15"/>
   <rect fill="#000000" height="31.99006" width="31.92756" shape-rendering="crispEdges" y="447.85506" x="256.417" id="_x39_-15"/>
   <rect fill="#000000" height="31.99006" width="31.92756" shape-rendering="crispEdges" y="447.85506" x="288.34456" id="_x31_0-15"/>
   <rect fill="#000000" height="31.99006" width="31.92756" shape-rendering="crispEdges" y="479.84396" x="192.56304" id="_x37_-16"/>
   <rect fill="#000000" height="31.99006" width="31.92756" shape-rendering="crispEdges" y="479.84396" x="224.48944" id="_x38_-16"/>
   <rect fill="#000000" height="31.99006" width="31.92756" shape-rendering="crispEdges" y="479.84396" x="256.417" id="_x39_-16"/>
   <rect fill="#000000" height="31.99006" width="31.92756" shape-rendering="crispEdges" y="479.84396" x="288.34456" id="_x31_0-16"/>
  </g>
 </g>
</svg>